<svg xmlns="http://www.w3.org/2000/svg" viewBox="0 0 900 600">
<defs><linearGradient id="sky" x1="0" y1="0" x2="0" y2="1">
<stop offset="0" stop-color="#c7d2fe"/><stop offset=".55" stop-color="#fbcfe8"/><stop offset="1" stop-color="#fff1f2"/></linearGradient>
<linearGradient id="hill" x1="0" y1="0" x2="0" y2="1">
<stop offset="0" stop-color="#a5b4fc"/><stop offset="1" stop-color="#818cf8"/></linearGradient></defs>
<rect width="900" height="600" fill="url(#sky)"/>
<circle cx="640" cy="150" r="60" fill="#fda4af" opacity=".9"/><circle cx="640" cy="150" r="90" fill="#fda4af" opacity=".25"/>
<path d="M0 420 Q220 300 450 380 T900 360 V600 H0 Z" fill="url(#hill)"/>
<path d="M0 480 Q300 400 600 470 T900 450 V600 H0 Z" fill="#6366f1"/>
<g transform="translate(330,180)">
<rect x="60" y="90" width="130" height="120" rx="6" fill="#f9a8d4"/>
<rect x="85" y="40" width="34" height="170" rx="4" fill="#f472b6"/><polygon points="85,40 102,8 119,40" fill="#be185d"/>
<rect x="150" y="60" width="30" height="150" rx="4" fill="#f472b6"/><polygon points="150,60 165,32 180,60" fill="#be185d"/>
<rect x="20" y="120" width="46" height="90" rx="4" fill="#f472b6"/><polygon points="20,120 43,94 66,120" fill="#be185d"/>
<rect x="97" y="150" width="12" height="22" rx="2" fill="#fdf2f8"/><rect x="158" y="120" width="12" height="18" rx="2" fill="#fdf2f8"/>
<rect x="120" y="170" width="16" height="40" rx="3" fill="#831843"/></g>
<path d="M420 600 C430 520 380 470 430 420 C460 390 440 380 445 372" fill="none" stroke="#fdf2f8" stroke-width="14" stroke-linecap="round" opacity=".8"/>
<circle cx="433" cy="505" r="8" fill="#312e81"/><rect x="425" y="510" width="16" height="14" rx="4" fill="#312e81"/>
<path d="M660 520 Q740 500 820 518" stroke="#7c3aed" stroke-width="8" fill="none" stroke-linecap="round"/>
<g transform="translate(700,430) scale(1)">
<ellipse cx="40" cy="52" rx="34" ry="26" fill="#e9d5ff"/>
<circle cx="70" cy="38" r="16" fill="#f3e8ff"/>
<path d="M64 20 l6 -12 l5 12 M74 20 l7 -10 l3 12" stroke="#7c3aed" stroke-width="3" fill="none" stroke-linecap="round"/>
<polygon points="84,38 100,42 84,47" fill="#f59e0b"/>
<circle cx="72" cy="36" r="3.5" fill="#111827"/>
<path d="M18 46 q14 -12 34 -6" stroke="#4f46e5" stroke-width="7" fill="none" stroke-linecap="round"/>
<path d="M20 54 q14 -10 32 -5" stroke="#818cf8" stroke-width="5" fill="none" stroke-linecap="round"/>
<path d="M10 60 q-14 6 -18 20" stroke="#e9d5ff" stroke-width="9" fill="none" stroke-linecap="round"/>
</g></svg>
